<?xml version="1.0" encoding="utf-8"?>
<!-- Generator: Adobe Illustrator 24.0.3, SVG Export Plug-In . SVG Version: 6.00 Build 0)  -->
<svg version="1.1" id="Calque_1" xmlns="http://www.w3.org/2000/svg" xmlns:xlink="http://www.w3.org/1999/xlink" x="0px" y="0px"
	 viewBox="0 0 24 24" style="enable-background:new 0 0 24 24;" xml:space="preserve">
<style type="text/css">
	.st0{display:none;}
	.st1{display:inline;fill:#E7E9EA;}
	.st2{fill:#E7E9EA;}
</style>
<g class="st0">
	<path class="st1" d="M21.59,7.15l-9.07-5.99c-0.32-0.21-0.72-0.21-1.04,0L2.41,7.15C2.15,7.32,2,7.6,2,7.9v13.18
		C2,21.59,2.42,22,2.93,22h6.21c0.51,0,0.93-0.41,0.93-0.91v-7.07h3.91v7.07c0,0.5,0.42,0.91,0.93,0.91h6.16
		c0.51,0,0.93-0.41,0.93-0.91V7.9C22,7.6,21.84,7.32,21.59,7.15L21.59,7.15z"/>
</g>
<path class="st2" d="M12.7,21.86H7.05l3.05-7.65L3.05,1h1.92l5.96,11.16L15.38,1h5.66L12.7,21.86z M11.55,20.17l6.99-17.48h-2.01
	L9.54,20.17H11.55z"/>
</svg>
