<?xml version="1.0" encoding="utf-8"?>
<!-- Generator: Adobe Illustrator 24.0.3, SVG Export Plug-In . SVG Version: 6.00 Build 0)  -->
<svg version="1.1" id="Calque_1" xmlns="http://www.w3.org/2000/svg" xmlns:xlink="http://www.w3.org/1999/xlink" x="0px" y="0px"
	 viewBox="0 0 24 19.27" style="enable-background:new 0 0 24 19.27;" xml:space="preserve">
<style type="text/css">
	.st0{display:none;}
	.st1{display:inline;fill:#E7E9EA;}
	.st2{fill:#E7E9EA;}
</style>
<g class="st0">
	<path class="st1" d="M23,0.58C16.38,0.48,12.62,3,9.95,6.61C7.29,10.19,6,14.91,6,19.58h2c0-1.01,0.07-2.01,0.19-3H12
		c4.1,0,7.48-3.08,7.94-7.05C22.79,7.73,23.17,3.94,23,0.58z M16,8.58h-1.5v2H16c0.63-0.02,1.2-0.08,1.72-0.19
		c-0.77,2.43-3.04,4.19-5.72,4.19H8.55c0.57-2.51,1.57-4.85,3-6.78c2.16-2.91,5.29-4.91,9.45-5.19C20.95,5.66,19.9,8.58,16,8.58z
		 M4,6.58v-3H1v-2h3v-3h2v3h3v2H6v3H4z"/>
</g>
<path class="st2" d="M23.38,10.04c-0.04,0.31-0.07,0.61-0.13,0.92c-0.43,2.51-1.74,4.44-3.88,5.8c-1.68,1.07-3.53,1.46-5.49,1.21
	c-2.5-0.32-4.48-1.55-5.93-3.62c-0.34-0.49-0.24-1.1,0.22-1.44c0.47-0.34,1.09-0.26,1.45,0.24c0.67,0.95,1.51,1.69,2.56,2.2
	c2.68,1.3,6.03,0.49,7.82-1.9C21,12.13,21.45,10.64,21.28,9c-0.25-2.31-1.41-4.08-3.51-5.1c-2.49-1.21-4.87-0.88-7.01,0.88
	c-0.43,0.36-0.77,0.83-1.13,1.27C9.29,6.47,8.8,6.61,8.34,6.4C7.76,6.13,7.57,5.43,7.93,4.88c0.4-0.61,0.88-1.15,1.43-1.63
	c1.28-1.12,2.77-1.8,4.45-2.02c1.58-0.21,3.11,0.01,4.57,0.67c1.7,0.77,3,1.97,3.92,3.59c0.6,1.06,0.95,2.21,1.04,3.43
	c0.01,0.08,0.02,0.16,0.04,0.24C23.38,9.45,23.38,9.74,23.38,10.04z"/>
<path class="st2" d="M4.2,8.57c0.15,0,0.23,0,0.32,0c3.83,0,7.66,0,11.49,0c0.38,0,0.72,0.09,0.96,0.4
	c0.24,0.32,0.29,0.68,0.12,1.04c-0.16,0.37-0.46,0.57-0.86,0.61c-0.1,0.01-0.21,0.01-0.31,0.01c-3.8,0-7.6,0-11.4,0
	c-0.09,0-0.17,0-0.32,0c0.08,0.09,0.13,0.15,0.19,0.2c0.4,0.41,0.81,0.8,1.19,1.22c0.29,0.31,0.32,0.77,0.11,1.14
	c-0.22,0.38-0.56,0.59-0.99,0.53c-0.23-0.04-0.49-0.15-0.66-0.32c-1.04-1.01-2.06-2.04-3.08-3.07c-0.41-0.42-0.42-1.03,0-1.45
	C1.99,7.84,3.01,6.81,4.04,5.8C4.48,5.36,5.1,5.36,5.51,5.76C5.93,6.16,5.93,6.8,5.5,7.25C5.14,7.63,4.76,7.99,4.39,8.36
	C4.34,8.41,4.29,8.47,4.2,8.57z"/>
</svg>
