<?xml version="1.0" encoding="utf-8"?>
<!-- Generator: Adobe Illustrator 24.0.3, SVG Export Plug-In . SVG Version: 6.00 Build 0)  -->
<svg version="1.1" id="Calque_1" xmlns="http://www.w3.org/2000/svg" xmlns:xlink="http://www.w3.org/1999/xlink" x="0px" y="0px"
	 viewBox="0 0 24 24" style="enable-background:new 0 0 24 24;" xml:space="preserve">
<style type="text/css">
	.st0{fill:#E7E9EA;}
</style>
<g>
	<path class="st0" d="M23,3C16.38,2.9,12.62,5.42,9.95,9.03C7.29,12.61,6,17.33,6,22h2c0-1.01,0.07-2.01,0.19-3H12
		c4.1,0,7.48-3.08,7.94-7.05C22.79,10.15,23.17,6.36,23,3z M16,11h-1.5v2H16c0.63-0.02,1.2-0.08,1.72-0.19
		C16.95,15.24,14.68,17,12,17H8.55c0.57-2.51,1.57-4.85,3-6.78c2.16-2.91,5.29-4.91,9.45-5.19C20.95,8.08,19.9,11,16,11z M4,9V6H1V4
		h3V1h2v3h3v2H6v3H4z"/>
</g>
</svg>
