<?xml version="1.0" encoding="utf-8"?>
<!-- Generator: Adobe Illustrator 24.0.3, SVG Export Plug-In . SVG Version: 6.00 Build 0)  -->
<svg version="1.1" id="Calque_1" xmlns="http://www.w3.org/2000/svg" xmlns:xlink="http://www.w3.org/1999/xlink" x="0px" y="0px"
	 viewBox="0 0 24 24" style="enable-background:new 0 0 24 24;" xml:space="preserve">
<style type="text/css">
	.st0{fill:#E7E9EA;}
</style>
<g>
	<path class="st0" d="M5.65,19h12.7c-0.34-1.8-1.02-3.21-1.94-4.19C15.32,13.65,13.84,13,12,13s-3.32,0.65-4.4,1.81
		C6.67,15.79,5.99,17.2,5.65,19z M6.14,13.44C7.63,11.85,9.65,11,12,11s4.37,0.85,5.86,2.44c1.48,1.58,2.37,3.8,2.63,6.46L20.6,21
		H3.39l0.11-1.1C3.77,17.24,4.66,15.02,6.14,13.44z M12,4c-1.1,0-2,0.9-2,2s0.9,2,2,2s2-0.9,2-2S13.1,4,12,4z M8,6
		c0-2.21,1.79-4,4-4s4,1.79,4,4s-1.79,4-4,4S8,8.21,8,6z"/>
</g>
</svg>
